name D:\school\WTK\thesis\model\3dpredictsim\Results\test_WL_v2\Fal_s1_bCst_PF_Natali2010_ls135_k150_kmtp_ig23.mot
datacolumns 128
datarows 4
range 1.74127990 1.77610550
endheader
time	pelvis_tilt	pelvis_list	pelvis_rotation	pelvis_tx	pelvis_ty	pelvis_tz	hip_flexion_l	hip_adduction_l	hip_rotation_l	hip_flexion_r	hip_adduction_r	hip_rotation_r	knee_angle_l	knee_angle_r	ankle_angle_l	ankle_angle_r	subtalar_angle_l	subtalar_angle_r	tmt_angle_l	tmt_angle_r	mtp_angle_l	mtp_angle_r	lumbar_extension	lumbar_bending	lumbar_rotation	arm_flex_l	arm_add_l	arm_rot_l	arm_flex_r	arm_add_r	arm_rot_r	elbow_flex_l	elbow_flex_r	pro_sup_l	pro_sup_r	glut_med1_l/activation	glut_med2_l/activation	glut_med3_l/activation	glut_min1_l/activation	glut_min2_l/activation	glut_min3_l/activation	semimem_l/activation	semiten_l/activation	bifemlh_l/activation	bifemsh_l/activation	sar_l/activation	add_long_l/activation	add_brev_l/activation	add_mag1_l/activation	add_mag2_l/activation	add_mag3_l/activation	tfl_l/activation	pect_l/activation	grac_l/activation	glut_max1_l/activation	glut_max2_l/activation	glut_max3_l/activation	iliacus_l/activation	psoas_l/activation	quad_fem_l/activation	gem_l/activation	peri_l/activation	rect_fem_l/activation	vas_med_l/activation	vas_int_l/activation	vas_lat_l/activation	med_gas_l/activation	lat_gas_l/activation	soleus_l/activation	tib_post_l/activation	flex_dig_l/activation	flex_hal_l/activation	tib_ant_l/activation	per_brev_l/activation	per_long_l/activation	per_tert_l/activation	ext_dig_l/activation	ext_hal_l/activation	ercspn_l/activation	intobl_l/activation	extobl_l/activation	glut_med1_r/activation	glut_med2_r/activation	glut_med3_r/activation	glut_min1_r/activation	glut_min2_r/activation	glut_min3_r/activation	semimem_r/activation	semiten_r/activation	bifemlh_r/activation	bifemsh_r/activation	sar_r/activation	add_long_r/activation	add_brev_r/activation	add_mag1_r/activation	add_mag2_r/activation	add_mag3_r/activation	tfl_r/activation	pect_r/activation	grac_r/activation	glut_max1_r/activation	glut_max2_r/activation	glut_max3_r/activation	iliacus_r/activation	psoas_r/activation	quad_fem_r/activation	gem_r/activation	peri_r/activation	rect_fem_r/activation	vas_med_r/activation	vas_int_r/activation	vas_lat_r/activation	med_gas_r/activation	lat_gas_r/activation	soleus_r/activation	tib_post_r/activation	flex_dig_r/activation	flex_hal_r/activation	tib_ant_r/activation	per_brev_r/activation	per_long_r/activation	per_tert_r/activation	ext_dig_r/activation	ext_hal_r/activation	ercspn_r/activation	intobl_r/activation	extobl_r/activation	
          1.74127990	         -2.92931198	          2.19509678	         -6.13584654	          2.17659987	          0.91970410	          0.00270377	         28.01328784	          3.58859853	         -2.27163880	        -16.82340786	         -1.29206869	          6.26619931	         -9.32226897	         -9.96475718	          7.94641254	         -1.03251512	         -5.05471118	          8.95705070	         -3.52129118	         -2.07611678	         -0.08061694	         25.22097259	         -1.63968775	         -0.36560167	          2.26396812	         -7.24680612	        -13.45038137	          5.51266229	          4.23261868	        -13.46628443	         16.15008794	         17.33464569	         38.16446123	         86.51662706	         86.51662706	          0.05000003	          0.05000009	          0.10171246	          0.05000011	          0.05000013	          0.05000016	          0.14545043	          0.08341485	          0.16037144	          0.07897617	          0.05967746	          0.12312233	          0.32751243	          0.33117588	          0.22778846	          0.12406572	          0.05000084	          0.07142822	          0.15133893	          0.05000372	          0.10682589	          0.15272512	          0.05000033	          0.05965183	          0.51522713	          0.25160043	          0.11448295	          0.05967426	          0.09553542	          0.09988071	          0.08063423	          0.06759889	          0.07121850	          0.06260238	          0.05967392	          0.05109138	          0.05967441	          0.50821037	          0.29928772	          0.21637309	          0.10682259	          0.44154726	          0.22833843	          0.05000001	          0.09992579	          0.08424070	          0.22235299	          0.07477966	          0.05594016	          0.23419487	          0.14534989	          0.08499674	          0.05001116	          0.05000267	          0.05000393	          0.05000047	          0.08505741	          0.20323249	          0.06400153	          0.05973747	          0.05967400	          0.05967589	          0.24515724	          0.08595176	          0.05001994	          0.05004351	          0.05003807	          0.05019477	          0.35250610	          0.57421092	          0.05576287	          0.05802126	          0.05000107	          0.24518339	          0.14362957	          0.15271547	          0.14707533	          0.20761333	          0.28428882	          0.24084696	          0.21922664	          0.19875733	          0.26354640	          0.05000007	          0.05000052	          0.13243996	          0.05000020	          0.05000011	          0.05000029	          0.06397347	          0.07121922	          0.07094816	
          1.75288843	         -2.92348636	          2.26593210	         -6.38194502	          2.19467720	          0.91886709	          0.00253724	         27.24310824	          3.84326449	         -1.99096076	        -16.68004175	         -1.59060147	          6.01293960	         -9.91581103	        -11.89541792	          7.39624912	         -1.82519675	         -5.37395602	          9.86314810	         -3.64144254	         -3.00644421	         -0.14755927	         26.34399165	         -1.39729570	         -0.55975151	          2.32312579	         -8.25445656	        -13.45129402	          5.39327404	          3.82802294	        -13.47575188	         16.43335660	         17.04259602	         39.36338157	         86.51662706	         86.51662706	          0.23980914	          0.25727226	          0.30079707	          0.42248988	          0.27147503	          0.20980166	          0.12256923	          0.06989951	          0.13437382	          0.07115423	          0.05000436	          0.10316293	          0.27441917	          0.27748886	          0.19086201	          0.13323369	          0.05000093	          0.05985001	          0.12680592	          0.05000495	          0.14059811	          0.12799857	          0.05313331	          0.05000094	          0.43170323	          0.21081346	          0.21724650	          0.05000052	          0.08004835	          0.08368923	          0.06756278	          0.05664044	          0.05967332	          0.05245388	          0.05000026	          0.05000095	          0.05000140	          0.57047450	          0.33729143	          0.18129701	          0.35877719	          0.54921465	          0.24699761	          0.06386100	          0.11971430	          0.07058438	          0.33422485	          0.06265715	          0.05000018	          0.28906077	          0.12178732	          0.07121803	          0.05000395	          0.05000042	          0.05000030	          0.05000102	          0.07126957	          0.17028656	          0.06202840	          0.05005388	          0.05000324	          0.05000237	          0.20542116	          0.08268048	          0.05000342	          0.05000290	          0.05000141	          0.05000084	          0.29536120	          0.54447422	          0.05000028	          0.05000099	          0.05000058	          0.20543655	          0.12034601	          0.12795901	          0.12323315	          0.17395692	          0.23820249	          0.20180302	          0.18368769	          0.16653683	          0.22082282	          0.06192843	          0.11693846	          0.14243826	          0.05000808	          0.10576753	          0.05001378	          0.06026759	          0.05967381	          0.05944671	
          1.76449696	         -2.91489002	          2.33328072	         -6.58952216	          2.21280421	          0.91801441	          0.00233978	         26.44502956	          4.06703258	         -1.71227217	        -16.44955635	         -1.88046231	          5.76587620	        -10.47808129	        -13.95220902	          6.91332406	         -2.68862554	         -5.68670252	         10.71858362	         -3.56137073	         -3.95788154	         -0.16541097	         27.07388915	         -1.16198073	         -0.75689228	          2.37276601	         -9.22489230	        -13.45409368	          5.33957104	          3.39012348	        -13.49286818	         16.66916295	         16.75347938	         40.51348679	         86.51662706	         86.51662706	          0.34446879	          0.35433150	          0.38291636	          0.35399995	          0.22746811	          0.23974974	          0.10466839	          0.08286704	          0.11259110	          0.05961980	          0.05000155	          0.08643916	          0.22993291	          0.23250533	          0.15992481	          0.16324681	          0.05000093	          0.05014852	          0.10625003	          0.22155291	          0.19636644	          0.16484375	          0.05000015	          0.05000020	          0.36171950	          0.17663845	          0.18202916	          0.05000020	          0.10890226	          0.11330044	          0.09002774	          0.05000010	          0.05000028	          0.05000005	          0.05000103	          0.05000086	          0.05000095	          0.65662315	          0.36173563	          0.19840663	          0.42452491	          0.57704188	          0.36263539	          0.08052553	          0.10030733	          0.05914192	          0.28004399	          0.05249992	          0.05000039	          0.24220143	          0.10204444	          0.05967306	          0.05000300	          0.05000033	          0.05000040	          0.05000016	          0.05971638	          0.16435379	          0.15880707	          0.05185809	          0.05951598	          0.13389108	          0.17212065	          0.06927890	          0.05000090	          0.05001800	          0.05001465	          0.05002836	          0.24747997	          0.48967669	          0.05000071	          0.05000249	          0.05000049	          0.17213306	          0.12411261	          0.12113230	          0.12107103	          0.14575660	          0.19958727	          0.16908853	          0.15391003	          0.13953968	          0.18502525	          0.12422127	          0.13447123	          0.14600830	          0.05000136	          0.16964441	          0.12106366	          0.07617980	          0.05000009	          0.05000007	
          1.77610550	         -2.90459287	          2.39594593	         -6.76025898	          2.23075404	          0.91721849	          0.00211472	         25.70048157	          4.30096803	         -1.43578428	        -16.09298483	         -2.15188163	          5.52670711	        -11.09521044	        -16.17501712	          6.34358213	         -3.62292573	         -6.00589238	         11.49644745	         -3.59994205	         -4.78405287	         -0.18996539	         27.07646985	         -0.95154219	         -0.95969743	          2.41461359	        -10.11459417	        -13.45913588	          5.34400346	          2.96766923	        -13.51261137	         16.89201546	         16.44638054	         41.56644761	         86.51662706	         86.51662706	          0.43024095	          0.43025510	          0.44147407	          0.31069142	          0.19069174	          0.28425940	          0.08891407	          0.10239525	          0.09888691	          0.05000411	          0.05000054	          0.07242655	          0.19265872	          0.22898321	          0.25526094	          0.19082889	          0.05000050	          0.05005561	          0.10927046	          0.27083847	          0.23187004	          0.20750382	          0.05000021	          0.05000019	          0.30308089	          0.14800358	          0.20274868	          0.05000011	          0.17141540	          0.17932591	          0.14057339	          0.05000006	          0.05000012	          0.05000001	          0.05000003	          0.05000029	          0.05000024	          0.69165172	          0.30309466	          0.16624288	          0.58199635	          0.61122273	          0.39513942	          0.09215235	          0.08404646	          0.05000011	          0.23464687	          0.05000029	          0.05000016	          0.20293947	          0.08550214	          0.05000070	          0.05102930	          0.05814371	          0.05967032	          0.05000103	          0.05003716	          0.18274562	          0.21592702	          0.06644198	          0.05003853	          0.12562779	          0.14421933	          0.05806273	          0.05000674	          0.05000369	          0.05000190	          0.05000153	          0.20736081	          0.44583718	          0.05000025	          0.05000116	          0.05000055	          0.14422841	          0.10399266	          0.10149549	          0.10144415	          0.12212786	          0.16723202	          0.14167743	          0.12896047	          0.11691950	          0.15503120	          0.16375264	          0.12173866	          0.12963711	          0.10147926	          0.20918291	          0.10143897	          0.10092122	          0.05000005	          0.05000010	
